<?xml version="1.0" encoding="utf-8"?>
<svg viewBox="23.553 26.3 447.584 447.584" xmlns="http://www.w3.org/2000/svg">
  <path style="stroke: rgb(0, 0, 0); fill: rgb(255, 255, 255); stroke-width: 0px;" d="M 234.133 114.617 C 234.133 33.659 248.853 26.3 248.853 26.3 C 248.853 26.3 263.572 33.659 263.572 114.617 C 263.572 166.136 248.853 173.496 248.853 173.496 C 248.853 173.496 234.133 166.136 234.133 114.617"/>
  <path style="stroke: rgb(0, 0, 0); fill: rgb(255, 255, 255); stroke-width: 0px;" d="M 233.267 385.567 C 233.267 466.525 247.987 473.884 247.987 473.884 C 247.987 473.884 262.706 466.525 262.706 385.567 C 262.706 334.048 247.987 326.688 247.987 326.688 C 247.987 326.688 233.267 334.048 233.267 385.567"/>
  <path style="stroke: rgb(0, 0, 0); fill: rgb(255, 255, 255); stroke-width: 0px;" d="M 82.432 261.476 C 82.432 180.518 97.152 173.159 97.152 173.159 C 97.152 173.159 111.871 180.518 111.871 261.476 C 111.871 312.995 97.152 320.355 97.152 320.355 C 97.152 320.355 82.432 312.995 82.432 261.476" transform="matrix(0, -1, 1, 0, -149.605504, 343.908519)"/>
  <path style="stroke: rgb(0, 0, 0); fill: rgb(255, 255, 255); stroke-width: 0px;" d="M 382.82 232.904 C 382.82 313.862 397.54 321.221 397.54 321.221 C 397.54 321.221 412.259 313.862 412.259 232.904 C 412.259 181.385 397.54 174.025 397.54 174.025 C 397.54 174.025 382.82 181.385 382.82 232.904" transform="matrix(0, -1, 1, 0, 149.916508, 645.162495)"/>
  <path style="stroke: rgb(0, 0, 0); fill: rgb(255, 255, 255); stroke-width: 0px;" d="M 306.859 134.986 C 306.859 54.028 321.579 46.669 321.579 46.669 C 321.579 46.669 336.298 54.028 336.298 134.986 C 336.298 186.505 321.579 193.865 321.579 193.865 C 321.579 193.865 306.859 186.505 306.859 134.986" transform="matrix(0.866025, 0.5, -0.5, 0.866025, 103.216899, -144.676564)"/>
  <path style="stroke: rgb(0, 0, 0); fill: rgb(255, 255, 255); stroke-width: 0px;" d="M 155.915 365.259 C 155.915 446.218 170.635 453.577 170.635 453.577 C 170.635 453.577 185.354 446.218 185.354 365.259 C 185.354 313.74 170.635 306.38 170.635 306.38 C 170.635 306.38 155.915 313.74 155.915 365.259" transform="matrix(0.866025, 0.5, -0.5, 0.866025, 212.850012, -34.40978)"/>
  <path style="stroke: rgb(0, 0, 0); fill: rgb(255, 255, 255); stroke-width: 0px;" d="M 102.053 186.321 C 102.053 105.363 116.773 98.004 116.773 98.004 C 116.773 98.004 131.492 105.363 131.492 186.321 C 131.492 237.839 116.773 245.199 116.773 245.199 C 116.773 245.199 102.053 237.839 102.053 186.321" transform="matrix(0.5, -0.866025, 0.866025, 0.5, -90.225016, 186.928671)"/>
  <path style="stroke: rgb(0, 0, 0); fill: rgb(255, 255, 255); stroke-width: 0px;" d="M 361.763 307.827 C 361.763 388.785 376.483 396.144 376.483 396.144 C 376.483 396.144 391.202 388.785 391.202 307.827 C 391.202 256.308 376.483 248.948 376.483 248.948 C 376.483 248.948 361.763 256.308 361.763 307.827" transform="matrix(0.5, -0.866025, 0.866025, 0.5, -91.091815, 487.31636)"/>
  <path style="stroke: rgb(0, 0, 0); fill: rgb(255, 255, 255); stroke-width: 0px;" d="M 358.614 193.34 C 358.614 112.382 373.334 105.023 373.334 105.023 C 373.334 105.023 388.053 112.382 388.053 193.34 C 388.053 244.859 373.334 252.219 373.334 252.219 C 373.334 252.219 358.614 244.859 358.614 193.34" transform="matrix(0.5, 0.866025, -0.866025, 0.5, 341.357035, -234.005805)"/>
  <path style="stroke: rgb(0, 0, 0); fill: rgb(255, 255, 255); stroke-width: 0px;" d="M 98.037 313.347 C 98.037 394.305 112.757 401.664 112.757 401.664 C 112.757 401.664 127.476 394.305 127.476 313.347 C 127.476 261.828 112.757 254.468 112.757 254.468 C 112.757 254.468 98.037 261.828 98.037 313.347" transform="matrix(0.5, 0.866025, -0.866025, 0.5, 340.491709, 66.382975)"/>
  <path style="stroke: rgb(0, 0, 0); fill: rgb(255, 255, 255); stroke-width: 0px;" d="M 155.579 135.394 C 155.579 54.436 170.299 47.077 170.299 47.077 C 170.299 47.077 185.018 54.436 185.018 135.394 C 185.018 186.913 170.299 194.273 170.299 194.273 C 170.299 194.273 155.579 186.913 155.579 135.394" transform="matrix(0.866025, -0.5, 0.5, 0.866025, -37.521833, 101.316669)"/>
  <path style="stroke: rgb(0, 0, 0); fill: rgb(255, 255, 255); stroke-width: 0px;" d="M 305.021 366.533 C 305.021 447.49 319.741 454.849 319.741 454.849 C 319.741 454.849 334.46 447.49 334.46 366.533 C 334.46 315.014 319.741 307.654 319.741 307.654 C 319.741 307.654 305.021 315.014 305.021 366.533" transform="matrix(0.866025, -0.5, 0.5, 0.866025, -147.78867, 210.94834)"/>
</svg>